<?xml version="1.0" encoding="utf-8"?>
<svg xmlns="http://www.w3.org/2000/svg" shape-rendering="geometricPrecision" text-rendering="geometricPrecision" image-rendering="optimizeQuality" fill-rule="evenodd" clip-rule="evenodd" viewBox="0 0 500 511.56">
  <path fill-rule="nonzero" d="M117.91 0h201.68c3.93 0 7.44 1.83 9.72 4.67l114.28 123.67c2.21 2.37 3.27 5.4 3.27 8.41l.06 310c0 35.43-29.4 64.81-64.8 64.81H117.91c-35.57 0-64.81-29.24-64.81-64.81V64.8C53.1 29.13 82.23 0 117.91 0zM325.5 37.15v52.94c2.4 31.34 23.57 42.99 52.93 43.5l36.16-.04-89.09-96.4zm96.5 121.3l-43.77-.04c-42.59-.68-74.12-21.97-77.54-66.54l-.09-66.95H117.91c-21.93 0-39.89 17.96-39.89 39.88v381.95c0 21.82 18.07 39.89 39.89 39.89h264.21c21.71 0 39.88-18.15 39.88-39.89v-288.3z" style=""/>
  <path d="M28.04 194.61h443.92c15.43 0 28.04 12.63 28.04 28.04v188.54c0 15.4-12.63 28.04-28.04 28.04H28.04C12.64 439.23 0 426.61 0 411.19V222.65c0-15.43 12.62-28.04 28.04-28.04z" style="fill: rgb(73, 0, 255);"/>
  <path fill="#fff" fill-rule="nonzero" d="M177.54 342.75l2.9 32.51c-8.12 3.35-18.32 5.03-30.57 5.03s-22.09-1.29-29.51-3.87c-7.41-2.58-13.25-6.65-17.51-12.19-4.25-5.55-7.22-12.06-8.9-19.54-1.67-7.49-2.51-16.71-2.51-27.67 0-10.97.84-20.22 2.51-27.77 1.68-7.55 4.65-14.09 8.9-19.64 8.26-10.71 23.42-16.06 45.47-16.06 4.9 0 10.68.48 17.32 1.45 6.64.97 11.58 2.16 14.8 3.58l-5.8 29.61c-8.39-1.81-16.06-2.71-23.03-2.71-6.96 0-11.8.64-14.51 1.93-2.71 1.29-4.06 3.87-4.06 7.74v50.7a75.944 75.944 0 0015.28 1.54c10.97 0 20.71-1.54 29.22-4.64zm14.51 32.51l5.42-31.93c11.87 2.97 22.54 4.45 32.02 4.45 9.48 0 17.13-.39 22.93-1.16v-9.67l-17.41-1.55c-15.74-1.42-26.54-5.19-32.41-11.32-5.87-6.13-8.81-15.19-8.81-27.19 0-16.51 3.58-27.86 10.74-34.05 7.16-6.19 19.32-9.29 36.47-9.29 17.16 0 32.64 1.61 46.44 4.84l-4.83 30.96c-12-1.94-21.61-2.91-28.83-2.91-7.23 0-13.36.33-18.39.97v9.48l13.94 1.36c16.89 1.67 28.57 5.71 35.02 12.09 6.45 6.39 9.67 15.25 9.67 26.61 0 8.12-1.09 14.99-3.29 20.6-2.19 5.61-4.8 9.87-7.83 12.77-3.04 2.91-7.33 5.13-12.87 6.68-5.55 1.55-10.42 2.48-14.61 2.8-4.19.33-9.77.49-16.74.49-16.77 0-32.31-1.68-46.63-5.03zm114.55 0l5.42-31.93c11.86 2.97 22.54 4.45 32.02 4.45 9.48 0 17.12-.39 22.93-1.16v-9.67l-17.42-1.55c-15.73-1.42-26.54-5.19-32.41-11.32-5.86-6.13-8.8-15.19-8.8-27.19 0-16.51 3.58-27.86 10.74-34.05 7.16-6.19 19.31-9.29 36.47-9.29s32.64 1.61 46.44 4.84l-4.84 30.96c-12-1.94-21.61-2.91-28.83-2.91-7.22 0-13.35.33-18.38.97v9.48l13.93 1.36c16.9 1.67 28.57 5.71 35.02 12.09 6.45 6.39 9.68 15.25 9.68 26.61 0 8.12-1.1 14.99-3.29 20.6-2.2 5.61-4.81 9.87-7.84 12.77-3.03 2.91-7.32 5.13-12.87 6.68-5.54 1.55-10.41 2.48-14.6 2.8-4.2.33-9.78.49-16.74.49-16.77 0-32.31-1.68-46.63-5.03z"/>
</svg>