<?xml version="1.0" encoding="utf-8"?>
<svg xmlns="http://www.w3.org/2000/svg" shape-rendering="geometricPrecision" text-rendering="geometricPrecision" image-rendering="optimizeQuality" fill-rule="evenodd" clip-rule="evenodd" viewBox="0 0 500 511.56">
  <path fill-rule="nonzero" d="M117.91 0h201.68c3.93 0 7.44 1.83 9.72 4.67l114.28 123.67c2.21 2.37 3.27 5.4 3.27 8.41l.06 310c0 35.43-29.4 64.81-64.8 64.81H117.91c-35.57 0-64.81-29.24-64.81-64.81V64.8C53.1 29.13 82.23 0 117.91 0zM325.5 37.15v52.94c2.4 31.34 23.57 42.99 52.93 43.5l36.16-.04-89.09-96.4zm96.5 121.3l-43.77-.04c-42.59-.68-74.12-21.97-77.54-66.54l-.09-66.95H117.91c-21.93 0-39.89 17.96-39.89 39.88v381.95c0 21.82 18.07 39.89 39.89 39.89h264.21c21.71 0 39.88-18.15 39.88-39.89v-288.3z"/>
  <path d="M28.04 194.61h443.92c15.43 0 28.04 12.63 28.04 28.04v188.54c0 15.4-12.63 28.04-28.04 28.04H28.04C12.64 439.23 0 426.61 0 411.19V222.65c0-15.43 12.62-28.04 28.04-28.04z" style="fill: rgb(32, 140, 75);"/>
  <path fill="#fff" fill-rule="nonzero" d="M169.8 342.75l2.9 32.5c-8.12 3.36-18.31 5.04-30.57 5.04-12.25 0-22.09-1.29-29.51-3.87-7.41-2.58-13.25-6.65-17.51-12.19-4.25-5.55-7.22-12.06-8.9-19.55-1.67-7.48-2.51-16.7-2.51-27.67 0-10.96.84-20.21 2.51-27.76 1.68-7.55 4.65-14.09 8.9-19.64 8.26-10.71 23.42-16.06 45.47-16.06 4.91 0 10.68.48 17.32 1.45 6.64.97 11.58 2.16 14.8 3.58l-5.8 29.6c-8.39-1.8-16.06-2.7-23.03-2.7-6.96 0-11.8.64-14.51 1.93-2.71 1.29-4.06 3.87-4.06 7.74v50.7a75.944 75.944 0 0015.28 1.54c10.97 0 20.71-1.54 29.22-4.64zm17.41 32.5l5.42-31.92c11.87 2.97 22.54 4.45 32.02 4.45 9.49 0 17.13-.39 22.93-1.16v-9.68l-17.41-1.54c-15.74-1.42-26.54-5.2-32.41-11.32-5.87-6.13-8.8-15.19-8.8-27.19 0-16.51 3.58-27.86 10.73-34.05 7.16-6.19 19.32-9.29 36.48-9.29 17.15 0 32.63 1.61 46.44 4.84l-4.84 30.96c-12-1.94-21.61-2.91-28.83-2.91-7.23 0-13.35.33-18.38.97v9.48l13.93 1.36c16.9 1.67 28.57 5.7 35.02 12.09 6.45 6.38 9.67 15.25 9.67 26.6 0 8.13-1.09 15-3.29 20.61-2.19 5.61-4.8 9.87-7.83 12.77-3.03 2.9-7.32 5.13-12.87 6.68-5.55 1.54-10.42 2.48-14.61 2.8-4.19.33-9.77.49-16.73.49-16.77 0-32.32-1.68-46.64-5.04zm188.27-118.8h40.83l-30 120.93h-56.49l-29.99-120.93h40.82l16.45 76.82h1.74l16.64-76.82z"/>
</svg>