<?xml version="1.0" encoding="utf-8"?>
<svg xmlns="http://www.w3.org/2000/svg" shape-rendering="geometricPrecision" text-rendering="geometricPrecision" image-rendering="optimizeQuality" fill-rule="evenodd" clip-rule="evenodd" viewBox="0 0 500 511.56">
  <path fill-rule="nonzero" d="M117.91 0h201.68c3.93 0 7.44 1.83 9.72 4.67l114.28 123.67c2.21 2.37 3.27 5.4 3.27 8.41l.06 310c0 35.43-29.4 64.81-64.8 64.81H117.91c-35.57 0-64.81-29.24-64.81-64.81V64.8C53.1 29.13 82.23 0 117.91 0zM325.5 37.15v52.94c2.4 31.34 23.57 42.99 52.93 43.5l36.16-.04-89.09-96.4zm96.5 121.3l-43.77-.04c-42.59-.68-74.12-21.97-77.54-66.54l-.09-66.95H117.91c-21.93 0-39.89 17.96-39.89 39.88v381.95c0 21.82 18.07 39.89 39.89 39.89h264.21c21.71 0 39.88-18.15 39.88-39.89v-288.3z"/>
  <path d="M28.04 194.61h443.92c15.43 0 28.04 12.63 28.04 28.04v188.54c0 15.4-12.63 28.04-28.04 28.04H28.04C12.64 439.23 0 426.61 0 411.19V222.65c0-15.43 12.62-28.04 28.04-28.04z" style="fill: rgb(23, 0, 149);"/>
  <path fill="#fff" fill-rule="nonzero" d="M80.7 377.38V256.45h54.18c21.8 0 36.76 4.65 44.89 13.93 8.12 9.29 12.19 24.8 12.19 46.54s-4.07 37.25-12.19 46.53c-8.13 9.29-23.09 13.93-44.89 13.93H80.7zm54.76-89.97H119.4v59.02h16.06c5.29 0 9.12-.62 11.51-1.84 2.39-1.23 3.58-4.03 3.58-8.42v-38.5c0-4.39-1.19-7.19-3.58-8.42-2.39-1.23-6.22-1.84-11.51-1.84zm68.59 29.61c0-22.06 4.13-38.15 12.38-48.28 8.26-10.13 23.16-15.19 44.7-15.19 21.54 0 36.44 5.06 44.69 15.19 8.26 10.13 12.39 26.22 12.39 48.28 0 10.96-.87 20.18-2.61 27.67-1.75 7.48-4.75 13.99-9 19.54-4.26 5.54-10.13 9.61-17.61 12.19-7.48 2.58-16.77 3.87-27.86 3.87-11.1 0-20.38-1.29-27.86-3.87-7.49-2.58-13.36-6.65-17.61-12.19-4.26-5.55-7.26-12.06-9-19.54-1.74-7.49-2.61-16.71-2.61-27.67zm41.6-20.13v50.31h16.06c5.29 0 9.13-.61 11.51-1.84 2.39-1.22 3.58-4.03 3.58-8.41v-50.31h-16.25c-5.16 0-8.94.61-11.32 1.84-2.39 1.22-3.58 4.03-3.58 8.41zm170.75 45.86l2.9 32.51c-8.12 3.35-18.31 5.03-30.57 5.03-12.25 0-22.09-1.29-29.5-3.87-7.42-2.58-13.26-6.65-17.52-12.19-4.25-5.55-7.22-12.06-8.9-19.54-1.67-7.49-2.51-16.71-2.51-27.67 0-10.97.84-20.22 2.51-27.77 1.68-7.55 4.65-14.09 8.9-19.64 8.26-10.71 23.42-16.06 45.48-16.06 4.9 0 10.67.48 17.31 1.45 6.65.97 11.58 2.16 14.8 3.58l-5.8 29.61c-8.38-1.81-16.06-2.71-23.03-2.71-6.96 0-11.8.64-14.51 1.93-2.71 1.29-4.06 3.87-4.06 7.74v50.7a76.043 76.043 0 0015.29 1.54c10.96 0 20.7-1.54 29.21-4.64z"/>
</svg>