<?xml version="1.0" encoding="utf-8"?>
<svg xmlns="http://www.w3.org/2000/svg" shape-rendering="geometricPrecision" text-rendering="geometricPrecision" image-rendering="optimizeQuality" fill-rule="evenodd" clip-rule="evenodd" viewBox="0 0 500 511.56">
  <path fill-rule="nonzero" d="M117.91 0h201.68c3.93 0 7.44 1.83 9.72 4.67l114.28 123.67c2.21 2.37 3.27 5.4 3.27 8.41l.06 310c0 35.43-29.4 64.81-64.8 64.81H117.91c-35.57 0-64.81-29.24-64.81-64.81V64.8C53.1 29.13 82.23 0 117.91 0zM325.5 37.15v52.94c2.4 31.34 23.57 42.99 52.93 43.5l36.16-.04-89.09-96.4zm96.5 121.3l-43.77-.04c-42.59-.68-74.12-21.97-77.54-66.54l-.09-66.95H117.91c-21.93 0-39.89 17.96-39.89 39.88v381.95c0 21.82 18.07 39.89 39.89 39.89h264.21c21.71 0 39.88-18.15 39.88-39.89v-288.3z"/>
  <path d="M28.04 194.61h443.92c15.43 0 28.04 12.63 28.04 28.04v188.54c0 15.4-12.63 28.04-28.04 28.04H28.04C12.64 439.23 0 426.61 0 411.19V222.65c0-15.43 12.62-28.04 28.04-28.04z" style="fill: rgb(255, 211, 0);"/>
  <path fill="#fff" fill-rule="nonzero" d="M159.26 377.38l-3.87-30.95h16.06c4 0 6.54-.55 7.64-1.65 1.1-1.09 1.64-2.48 1.64-4.16v-53.21h-16.06v-30.96h54.76v89.01c0 10.45-2.58 18.38-7.74 23.8-5.16 5.42-12.57 8.12-22.25 8.12h-30.18zm83.39-2.12l5.42-31.93c11.87 2.97 22.54 4.45 32.02 4.45 9.48 0 17.12-.39 22.93-1.16v-9.67l-17.41-1.55c-15.74-1.42-26.54-5.19-32.41-11.32-5.87-6.13-8.81-15.19-8.81-27.19 0-16.51 3.58-27.86 10.74-34.05 7.16-6.19 19.32-9.29 36.47-9.29 17.16 0 32.64 1.61 46.44 4.84l-4.84 30.96c-11.99-1.94-21.6-2.91-28.83-2.91-7.22 0-13.35.33-18.38.97v9.48l13.93 1.36c16.9 1.67 28.57 5.71 35.02 12.09 6.45 6.39 9.68 15.25 9.68 26.61 0 8.12-1.1 14.99-3.29 20.6-2.19 5.61-4.81 9.87-7.84 12.77-3.03 2.91-7.32 5.13-12.86 6.68-5.55 1.55-10.42 2.48-14.61 2.8-4.19.33-9.77.49-16.74.49-16.77 0-32.31-1.68-46.63-5.03z"/>
</svg>