<?xml version="1.0" encoding="utf-8"?>
<svg xmlns="http://www.w3.org/2000/svg" shape-rendering="geometricPrecision" text-rendering="geometricPrecision" image-rendering="optimizeQuality" fill-rule="evenodd" clip-rule="evenodd" viewBox="0 0 500 511.56">
  <path fill-rule="nonzero" d="M117.91 0h201.68c3.93 0 7.44 1.83 9.72 4.67l114.28 123.67c2.21 2.37 3.27 5.4 3.27 8.41l.06 310c0 35.43-29.4 64.81-64.8 64.81H117.91c-35.57 0-64.81-29.24-64.81-64.81V64.8C53.1 29.13 82.23 0 117.91 0zM325.5 37.15v52.94c2.4 31.34 23.57 42.99 52.93 43.5l36.16-.04-89.09-96.4zm96.5 121.3l-43.77-.04c-42.59-.68-74.12-21.97-77.54-66.54l-.09-66.95H117.91c-21.93 0-39.89 17.96-39.89 39.88v381.95c0 21.82 18.07 39.89 39.89 39.89h264.21c21.71 0 39.88-18.15 39.88-39.89v-288.3z"/>
  <path d="M28.04 194.61h443.92c15.43 0 28.04 12.63 28.04 28.04v188.54c0 15.4-12.63 28.04-28.04 28.04H28.04C12.64 439.23 0 426.61 0 411.19V222.65c0-15.43 12.62-28.04 28.04-28.04z" style="fill: rgb(0, 0, 156);"/>
  <path fill="#fff" fill-rule="nonzero" d="M139.71 348.17h-25.15v29.21h-38.7V256.45h60.95c27.73 0 41.6 14.9 41.6 44.7 0 16.38-3.61 28.51-10.83 36.37-2.71 2.97-6.45 5.49-11.23 7.55-4.77 2.07-10.32 3.1-16.64 3.1zm-25.15-60.76v29.8h8.9c4.64 0 8.03-.49 10.16-1.45 2.13-.97 3.19-3.2 3.19-6.68v-13.54c0-3.49-1.06-5.71-3.19-6.68-2.13-.97-5.52-1.45-10.16-1.45h-8.9zm146.08 89.97v-42.76h-29.02v42.76h-38.7V256.45h38.7v42.76h29.02v-42.76h38.7v120.93h-38.7zm124.8-29.21h-25.15v29.21h-38.7V256.45h60.95c27.74 0 41.6 14.9 41.6 44.7 0 16.38-3.61 28.51-10.83 36.37-2.71 2.97-6.45 5.49-11.23 7.55-4.77 2.07-10.31 3.1-16.64 3.1zm-25.15-60.76v29.8h8.9c4.65 0 8.03-.49 10.16-1.45 2.13-.97 3.19-3.2 3.19-6.68v-13.54c0-3.49-1.06-5.71-3.19-6.68-2.13-.97-5.51-1.45-10.16-1.45h-8.9z"/>
</svg>