<?xml version="1.0" encoding="utf-8"?>
<svg xmlns="http://www.w3.org/2000/svg" shape-rendering="geometricPrecision" text-rendering="geometricPrecision" image-rendering="optimizeQuality" fill-rule="evenodd" clip-rule="evenodd" viewBox="0 0 500 511.56">
  <path fill-rule="nonzero" d="M117.91 0h201.68c3.93 0 7.44 1.83 9.72 4.67l114.28 123.67c2.21 2.37 3.27 5.4 3.27 8.41l.06 310c0 35.43-29.4 64.81-64.8 64.81H117.91c-35.57 0-64.81-29.24-64.81-64.81V64.8C53.1 29.13 82.23 0 117.91 0zM325.5 37.15v52.94c2.4 31.34 23.57 42.99 52.93 43.5l36.16-.04-89.09-96.4zm96.5 121.3l-43.77-.04c-42.59-.68-74.12-21.97-77.54-66.54l-.09-66.95H117.91c-21.93 0-39.89 17.96-39.89 39.88v381.95c0 21.82 18.07 39.89 39.89 39.89h264.21c21.71 0 39.88-18.15 39.88-39.89v-288.3z"/>
  <path fill="red" d="M28.04 194.61h443.92c15.43 0 28.04 12.63 28.04 28.04v188.54c0 15.4-12.63 28.04-28.04 28.04H28.04C12.64 439.23 0 426.61 0 411.19V222.65c0-15.43 12.62-28.04 28.04-28.04z"/>
  <path fill="#fff" fill-rule="nonzero" d="M80.7 377.38V256.45h54.18c21.8 0 36.76 4.65 44.89 13.93 8.12 9.29 12.19 24.8 12.19 46.54 0 21.73-4.07 37.24-12.19 46.53-8.13 9.29-23.09 13.93-44.89 13.93H80.7zm54.76-89.97H119.4v59.02h16.06c5.29 0 9.12-.62 11.51-1.84 2.39-1.23 3.58-4.03 3.58-8.42v-38.5c0-4.39-1.19-7.2-3.58-8.42-2.39-1.23-6.22-1.84-11.51-1.84zM204.05 317.01c0-22.05 4.13-38.15 12.38-48.27 8.26-10.13 23.16-15.19 44.7-15.19 21.54 0 36.44 5.06 44.69 15.19 8.26 10.12 12.39 26.22 12.39 48.27 0 10.97-.87 20.19-2.61 27.67-1.75 7.49-4.75 14-9 19.55-4.26 5.54-10.13 9.61-17.61 12.19-7.48 2.58-16.77 3.87-27.86 3.87-11.1 0-20.38-1.29-27.86-3.87-7.49-2.58-13.36-6.65-17.61-12.19-4.26-5.55-7.26-12.06-9-19.55-1.74-7.48-2.61-16.7-2.61-27.67zm41.6-20.12v50.31h16.06c5.29 0 9.13-.61 11.51-1.84 2.39-1.22 3.58-4.03 3.58-8.42v-50.3h-16.25c-5.16 0-8.94.61-11.32 1.83-2.39 1.23-3.58 4.04-3.58 8.42zM416.4 342.75l2.9 32.5c-8.12 3.36-18.31 5.04-30.57 5.04-12.25 0-22.09-1.29-29.5-3.87-7.42-2.58-13.26-6.65-17.52-12.19-4.25-5.55-7.22-12.06-8.9-19.55-1.67-7.48-2.51-16.7-2.51-27.67 0-10.96.84-20.21 2.51-27.76 1.68-7.55 4.65-14.09 8.9-19.64 8.26-10.71 23.42-16.06 45.48-16.06 4.9 0 10.67.48 17.31 1.45 6.65.97 11.58 2.16 14.8 3.58l-5.8 29.6c-8.38-1.8-16.06-2.7-23.03-2.7-6.96 0-11.8.64-14.51 1.93-2.71 1.29-4.06 3.87-4.06 7.74v50.7a76.043 76.043 0 0015.29 1.54c10.96 0 20.7-1.54 29.21-4.64z"/>
  <path fill-rule="nonzero" d="M117.91 0h201.68c3.93 0 7.44 1.83 9.72 4.67l114.28 123.67c2.21 2.37 3.27 5.4 3.27 8.41l.06 310c0 35.43-29.4 64.81-64.8 64.81H117.91c-35.57 0-64.81-29.24-64.81-64.81V64.8C53.1 29.13 82.23 0 117.91 0zM325.5 37.15v52.94c2.4 31.34 23.57 42.99 52.93 43.5l36.16-.04-89.09-96.4zm96.5 121.3l-43.77-.04c-42.59-.68-74.12-21.97-77.54-66.54l-.09-66.95H117.91c-21.93 0-39.89 17.96-39.89 39.88v381.95c0 21.82 18.07 39.89 39.89 39.89h264.21c21.71 0 39.88-18.15 39.88-39.89v-288.3z"/>
  <path d="M28.04 194.61h443.92c15.43 0 28.04 12.63 28.04 28.04v188.54c0 15.4-12.63 28.04-28.04 28.04H28.04C12.64 439.23 0 426.61 0 411.19V222.65c0-15.43 12.62-28.04 28.04-28.04z" style="fill: rgb(69, 133, 13);"/>
  <path fill="#fff" fill-rule="nonzero" d="M141.75 263.92h35.45l-16.62 106h-44.27l-7.8-39.01h-2.04l-7.63 39.01H54.57l-16.62-106H73.4l7.97 59.19h1.02l12.21-59.19h25.95l12.04 59.19h1.02l8.14-59.19zm110.5 65.97h-33.92v12.89h41.55v27.14h-75.47v-106h74.62l-4.24 27.13h-36.46v14.25h33.92v24.59zm20.78 40.03v-106h54.95c10.17 0 17.44 1.98 21.79 5.93 4.35 3.96 6.53 9.73 6.53 17.3 0 7.58-1.38 13.43-4.15 17.56-2.77 4.12-6.48 6.81-11.11 8.05v1.02c13.68 2.38 20.52 11.7 20.52 27.99 0 8.48-2.26 15.29-6.79 20.43-4.52 5.15-11.47 7.72-20.86 7.72h-60.88zm47.15-42.23h-13.23v17.3h13.06c4.75 0 7.12-2.88 7.12-8.65 0-5.77-2.32-8.65-6.95-8.65zm-2.55-40.54h-10.68v15.78h10.51c4.3 0 6.45-2.63 6.45-7.89s-2.1-7.89-6.28-7.89zm110.5 57.16h-22.05v25.61h-33.92v-106h53.43c24.31 0 36.46 13.06 36.46 39.18 0 14.36-3.16 24.99-9.5 31.88-2.37 2.6-5.65 4.81-9.83 6.62-4.19 1.81-9.05 2.71-14.59 2.71zm-22.05-53.26v26.12h7.8c4.07 0 7.04-.42 8.91-1.27 1.86-.85 2.8-2.8 2.8-5.85v-11.87c0-3.06-.94-5.01-2.8-5.85-1.87-.85-4.84-1.28-8.91-1.28h-7.8z"/>
</svg>